# xmcd
#
# Track frame offsets: 
#        150
#        15185
#        35021
#        53247
#        68174
#        86764
#        104049
#        122425
#        147105
#        150405
#        166780
#        185707
#        201694
#
# Disc length: 2798 seconds
#
# Revision: 0
# Processed by: cddbd v1.5.2PL0 Copyright (c) Steve Scherf et al.
# Submitted via: ExactAudioCopy v1.0b3
#
DISCID=b00aec0d
DTITLE=Nancy and Agatha Rwasoka - Goespel Latino
DYEAR=2008
DGENRE=Gospel Latino
TTITLE0=Siento Tu Amor
TTITLE1=Cantamnos Todos a Nuestro Señor
TTITLE2=Sonido de Avivamiento
TTITLE3=Cae la Lluvia
TTITLE4=Irrumpe Hoy en Mi
TTITLE5=Tú eres mi ser
TTITLE6=Espíritu Santo, Ven
TTITLE7=Cuando pienso en Tu amor tan bello
TTITLE8=Te amo cada día más
TTITLE9=Te amo cada día más (Reversión)
TTITLE10=Marcharemos
TTITLE11=A mi Rey Y Señor
TTITLE12=(13)
EXTD=
EXTT0=
EXTT1=
EXTT2=
EXTT3=
EXTT4=
EXTT5=
EXTT6=
EXTT7=
EXTT8=
EXTT9=
EXTT10=
EXTT11=
EXTT12=
PLAYORDER=
